<?xml version="1.0" standalone="no"?>
<!DOCTYPE svg PUBLIC "-//W3C//DTD SVG 20010904//EN"
 "http://www.w3.org/TR/2001/REC-SVG-20010904/DTD/svg10.dtd">
<svg version="1.0" xmlns="http://www.w3.org/2000/svg"
 width="1104.000000pt" height="1104.000000pt" viewBox="0 0 1104.000000 1104.000000"
 preserveAspectRatio="xMidYMid meet">
<metadata>
Created by potrace 1.11, written by Peter Selinger 2001-2013
</metadata>
<g transform="translate(0.000000,1104.000000) scale(0.100000,-0.100000)"
fill="#000000" stroke="none">
<path d="M1930 10594 c-51 -15 -82 -40 -107 -87 -16 -29 -17 -84 -17 -627 -1
-668 -3 -645 72 -695 101 -67 231 -20 262 93 6 24 9 255 7 622 -2 549 -3 587
-20 615 -40 67 -125 100 -197 79z"/>
<path d="M4300 10597 c-48 -12 -94 -49 -114 -91 -14 -31 -16 -90 -17 -523 -1
-768 -3 -702 28 -751 58 -89 185 -104 262 -32 51 49 51 46 51 680 0 569 -1
592 -20 630 -35 68 -117 106 -190 87z"/>
<path d="M6668 10599 c-44 -12 -83 -39 -108 -77 l-25 -36 -2 -600 c-1 -562 0
-602 17 -635 63 -124 229 -131 301 -13 l23 37 0 589 c1 428 -2 599 -11 624
-12 35 -46 77 -74 93 -30 16 -94 26 -121 18z"/>
<path d="M9038 10600 c-45 -8 -102 -50 -125 -93 -15 -29 -17 -87 -18 -625 0
-541 1 -596 17 -629 60 -124 219 -134 300 -20 l23 32 2 600 c1 583 1 601 -19
643 -11 24 -30 49 -42 57 -40 26 -100 41 -138 35z"/>
<path d="M769 10044 c-360 -62 -639 -321 -742 -693 l-21 -76 -1 -3986 c-1
-2261 2 -4015 7 -4055 34 -271 214 -543 443 -670 11 -6 36 -20 56 -31 54 -31
175 -70 264 -85 66 -11 881 -13 4765 -12 2577 0 4701 4 4720 8 135 27 221 58
312 111 223 131 375 329 441 577 l22 83 0 4040 0 4040 -28 89 c-110 353 -383
599 -729 660 -79 13 -647 21 -649 8 -4 -25 -3 -324 1 -330 3 -4 133 -8 290 -8
242 0 294 -3 345 -18 171 -51 300 -159 374 -312 15 -33 31 -72 35 -89 5 -16
10 -39 14 -50 3 -11 6 -1804 7 -3985 2 -4350 7 -4017 -59 -4155 -74 -154 -213
-267 -386 -311 -60 -16 -410 -17 -4715 -17 -2557 0 -4672 3 -4700 7 -244 37
-453 252 -482 496 -4 30 -7 1826 -7 3990 0 3695 1 3939 18 4000 23 87 57 156
108 221 55 70 79 91 160 140 125 76 167 83 519 83 l266 1 -1 170 -1 170 -285
1 c-191 0 -310 -4 -361 -12z"/>
<path d="M2538 10041 c-2 -9 -4 -86 -3 -171 l0 -155 615 -1 c338 0 620 1 625
3 6 2 10 67 9 171 l-1 167 -621 1 c-564 1 -621 0 -624 -15z"/>
<path d="M4899 10036 c-1 -23 -1 -308 0 -316 1 -8 1224 -6 1236 2 6 4 10 70
10 170 l0 163 -622 1 -623 1 -1 -21z"/>
<path d="M7266 10051 c-5 -9 -6 -304 -1 -321 4 -13 81 -15 625 -15 l620 0 0
171 0 171 -620 0 c-342 0 -622 -3 -624 -6z"/>
<path d="M1541 7941 c-66 -27 -116 -74 -148 -138 l-28 -58 0 -385 c1 -434 3
-452 68 -526 42 -48 90 -77 147 -89 19 -4 205 -8 413 -8 l378 1 62 31 c72 37
121 92 140 159 10 36 13 139 12 437 -1 377 -2 392 -23 436 -12 26 -42 65 -67
87 -80 70 -88 72 -524 71 -347 0 -391 -2 -430 -18z"/>
<path d="M3924 7949 c-67 -19 -127 -71 -162 -138 l-33 -64 3 -406 c3 -459 2
-447 84 -528 76 -73 93 -76 524 -76 440 0 451 2 532 85 78 80 79 90 76 550
l-3 393 -31 55 c-33 57 -100 113 -158 129 -41 12 -792 12 -832 0z"/>
<path d="M6270 7942 c-27 -9 -64 -35 -95 -66 -83 -83 -84 -87 -82 -541 2 -375
3 -392 23 -435 29 -61 78 -108 143 -138 l54 -25 377 0 c207 1 392 4 411 8 80
17 161 86 193 165 17 41 18 81 18 443 l0 397 -26 55 c-34 67 -90 117 -159 139
-75 24 -788 22 -857 -2z"/>
<path d="M8665 7953 c-98 -22 -185 -113 -201 -208 -12 -70 -8 -766 5 -811 25
-91 119 -176 210 -190 60 -9 713 -9 774 0 88 13 161 70 201 155 20 44 21 61
22 438 1 448 -1 461 -78 540 -78 80 -88 82 -528 81 -212 0 -394 -2 -405 -5z"/>
<path d="M1565 5584 c-95 -24 -175 -111 -192 -209 -5 -27 -8 -216 -7 -420 1
-348 2 -373 21 -415 27 -60 83 -117 141 -143 45 -20 61 -21 447 -21 351 0 405
2 438 17 65 28 114 74 144 135 l28 57 -1 395 c-1 217 -4 406 -7 418 -11 41
-56 110 -90 136 -77 59 -79 59 -495 60 -252 1 -398 -2 -427 -10z"/>
<path d="M3920 5581 c-60 -16 -131 -75 -163 -135 -21 -40 -22 -51 -25 -438 -2
-261 1 -411 8 -437 22 -82 111 -168 195 -187 22 -6 211 -9 425 -8 333 1 390 3
422 18 52 22 104 70 136 125 l27 46 3 401 c3 387 2 403 -18 457 -26 68 -101
141 -163 158 -65 19 -780 19 -847 0z"/>
<path d="M6277 5579 c-68 -23 -117 -67 -152 -134 l-30 -59 -2 -383 c-2 -428 1
-454 63 -530 20 -24 58 -53 92 -70 l57 -28 400 0 c398 1 400 1 448 24 66 32
123 93 143 154 15 45 17 100 16 434 0 406 -2 423 -50 495 -24 37 -95 89 -142
104 -14 4 -198 8 -410 9 -331 0 -391 -2 -433 -16z"/>
<path d="M8656 5582 c-87 -22 -148 -78 -181 -165 -16 -43 -18 -85 -18 -421 0
-204 3 -389 7 -410 14 -75 79 -153 156 -189 43 -20 60 -21 445 -21 386 0 402
1 447 21 62 28 112 75 140 132 22 45 23 51 24 442 1 439 0 449 -62 526 -20 24
-58 53 -91 70 l-57 27 -379 1 c-281 0 -392 -3 -431 -13z"/>
<path d="M1640 3230 c-97 -8 -150 -31 -204 -91 -69 -77 -71 -90 -70 -529 0
-380 1 -386 24 -438 29 -67 96 -127 163 -147 76 -23 770 -22 846 1 65 19 131
77 163 142 22 47 22 51 23 452 l0 405 -24 49 c-40 82 -114 138 -199 152 -50 8
-622 11 -722 4z"/>
<path d="M3975 3229 c-28 -4 -63 -12 -80 -19 -49 -19 -109 -75 -135 -126 l-25
-49 -2 -405 -3 -405 25 -52 c28 -61 68 -104 128 -135 41 -23 49 -23 434 -26
254 -2 407 1 432 8 70 19 133 70 168 138 l32 62 1 387 c1 453 -1 464 -82 544
-79 78 -93 81 -496 82 -191 1 -370 -1 -397 -4z"/>
<path d="M6380 3230 c-115 -6 -180 -36 -230 -107 -57 -79 -59 -97 -58 -506 1
-436 1 -442 81 -522 86 -86 86 -85 546 -83 l396 3 48 25 c58 29 102 77 129
138 19 42 20 70 20 441 1 389 0 397 -22 448 -26 60 -83 116 -146 145 -41 17
-72 19 -357 21 -171 1 -355 0 -407 -3z"/>
</g>
</svg>
